<svg width="80" height="80" xml:space="preserve" style="clip-rule:evenodd;fill-rule:evenodd;stroke-linejoin:round;stroke-miterlimit:1.41421" xmlns="http://www.w3.org/2000/svg">
    <path d="M239 0S41-6 0 213v150s2 16 47 48c45 33 161 124 192 124 30 0 147-91 192-124 45-32 46-48 46-48V213C437-6 239 0 239 0zm135 295H103v-82c28-109 136-110 136-110s108 1 135 110z" style="fill:#336;fill-rule:nonzero" transform="translate(11) scale(.11962)"/>
    <path d="M239 569s-31-3-55-20L0 418v226s1 27 30 27h417c29 0 30-27 30-27V418L293 549c-24 17-54 20-54 20z" style="fill:#336;fill-rule:nonzero" transform="translate(11) scale(.11962)"/>
</svg>